<svg version="1.1" id="Layer_1" xmlns="http://www.w3.org/2000/svg" xmlns:xlink="http://www.w3.org/1999/xlink" x="0px" y="0px"
 viewBox="420 0 1080 1080" enable-background="new 420 0 1080 1080" xml:space="preserve">
<path d="M848.73,322.207c5.625,0,10.459-2.021,14.502-6.064s6.064-8.877,6.064-14.502s-2.021-10.459-6.064-14.502
	s-8.877-6.064-14.502-6.064s-10.371,2.021-14.238,6.064s-5.801,8.877-5.801,14.502s1.934,10.459,5.801,14.502
	S843.105,322.207,848.73,322.207z M1071.27,322.207c5.625,0,10.371-2.021,14.238-6.064s5.801-8.877,5.801-14.502
	s-1.934-10.459-5.801-14.502s-8.613-6.064-14.238-6.064s-10.459,2.021-14.502,6.064s-6.064,8.877-6.064,14.502
	s2.021,10.459,6.064,14.502S1065.645,322.207,1071.27,322.207z M643.066,419.238c14.766,0,27.422,5.273,37.969,15.82
	s15.82,23.203,15.82,37.969v226.758c0,15.117-5.186,27.949-15.557,38.496s-23.115,15.82-38.232,15.82s-27.949-5.273-38.496-15.82
	s-15.82-23.379-15.82-38.496V473.027c0-14.766,5.273-27.422,15.82-37.969S627.949,419.238,643.066,419.238z M1202.051,429.258
	v351.211c0,16.172-5.625,29.883-16.875,41.133s-24.785,16.875-40.605,16.875h-39.551v119.707c0,15.117-5.273,27.949-15.82,38.496
	s-23.379,15.82-38.496,15.82s-27.949-5.273-38.496-15.82s-15.82-23.379-15.82-38.496V838.477h-72.773v119.707
	c0,15.117-5.273,27.949-15.82,38.496s-23.379,15.82-38.496,15.82c-14.766,0-27.422-5.273-37.969-15.82s-15.82-23.379-15.82-38.496
	l-0.527-119.707h-39.023c-16.172,0-29.883-5.625-41.133-16.875s-16.875-24.961-16.875-41.133V429.258H1202.051z M1079.707,215.684
	c37.617,19.336,67.676,46.318,90.176,80.947s33.75,72.51,33.75,113.643H715.84c0-41.133,11.25-79.014,33.75-113.643
	s52.734-61.611,90.703-80.947l-37.441-69.082c-2.461-4.57-1.582-8.086,2.637-10.547c4.57-2.109,8.086-1.055,10.547,3.164
	l37.969,69.609c33.398-14.766,68.73-22.148,105.996-22.148s72.598,7.383,105.996,22.148l37.969-69.609
	c2.461-4.219,5.977-5.273,10.547-3.164c4.219,2.461,5.098,5.977,2.637,10.547L1079.707,215.684z M1331.25,473.027v226.758
	c0,15.117-5.273,27.949-15.82,38.496s-23.379,15.82-38.496,15.82c-14.766,0-27.422-5.273-37.969-15.82s-15.82-23.379-15.82-38.496
	V473.027c0-15.117,5.273-27.861,15.82-38.232s23.203-15.557,37.969-15.557c15.117,0,27.949,5.186,38.496,15.557
	S1331.25,457.91,1331.25,473.027z"/>
</svg>
