<svg version="1.1" id="Layer_2" xmlns="http://www.w3.org/2000/svg" xmlns:xlink="http://www.w3.org/1999/xlink" x="0px" y="0px"
	 viewBox="420 0 1080 1080" enable-background="new 420 0 1080 1080" xml:space="preserve">
<path id="Github_1_" d="M1451.629,526.281l0.887-9.014c-54.793-5.256-109.305-5.713-162.273-1.752
	c8.531-26.838,12.975-57.148,12.648-91.605c-0.688-73.277-25.395-130.279-64.215-177.631c7.492-44.613,1.906-89.174-12.211-133.758
	c-55.504,4.469-105.441,22.396-149.9,53.652c-83.129-16.709-166.211-17.75-249.365-0.027
	c-51.869-34.582-102.803-51.566-152.922-53.625c-14.879,49.082-17.164,97.527-4.646,145.105
	c-43.697,45.881-60.432,101.59-59.594,163.238c0.434,35.344,5.969,66.721,16.098,94.498c-52.152-3.783-105.752-3.301-159.67,1.93
	l0.838,8.963c54.959-5.256,109.549-5.688,162.541-1.572c1.955,4.672,3.961,9.291,6.145,13.785
	c-57.434-1.498-109.18,3.43-157.559,15.186l2.184,8.783c49.143-11.908,101.803-16.707,160.607-14.752
	c38.848,68.277,113.695,108.395,222.719,121.115c-25.365,20.287-38.947,44.307-42.424,71.449c0,0-11.502,0-57.713,0
	c-77.566-0.027-98.717-97.729-179.027-88.082c77.898,38.213,62.385,160.215,187.025,160.215c41.895,0.027,50.832,0.027,52.354,0.027
	v111.813c0.586,18.102-7.387,30.188-20.238,38.566c44.609,4.469,78.201-17.543,78.201-44.609c0-27.014,0-134.691,0-147.797
	c0-13.225,13.965-14.244,13.965-14.244v172.6c0.533,17.24-7.898,27.016-16.859,36.334c39.354,1.523,76.348-6.221,78-39.334
	c0,0,0.023-156.855,0.023-165.211c0-8.277,13.762-8.502,13.762,0c0,8.531,0,157.467,0,157.467
	c0.406,27.904,24.758,50.582,76.426,47.074c-13.734-11.045-18.027-22.115-18.027-38.213c0-16.072,0-170.719,0-170.719
	s14.246-0.711,14.246,14.242c0,14.832,0,119.031,0,143.908c0,32.094,38.949,45.348,83.383,44.053
	c-14.523-10.766-24.477-23.635-24.477-40.803V744.379c-1.551-25.441-11.984-49.508-32.551-71.805
	c99.625-15.133,171.455-54.488,207.23-124.895c59.008-2.008,111.795,2.789,161.154,14.777l2.158-8.813
	c-48.822-11.832-100.979-16.781-158.996-15.207c2.031-4.469,4.037-8.914,5.713-13.637
	C1340.898,520.543,1396.098,520.975,1451.629,526.281z M619.641,666.717c-2.463,0-4.494-1.4-4.494-3.051
	c0-1.727,2.031-3.123,4.494-3.123c2.412,0,4.443,1.396,4.443,3.123C624.084,665.346,622.053,666.717,619.641,666.717z
	 M633.555,676.162c-2.666,0-4.928-1.523-4.928-3.477c0-1.879,2.236-3.402,4.928-3.402c2.717,0,4.9,1.523,4.9,3.428
	C638.48,674.639,636.297,676.162,633.555,676.162z M647.725,688.375c-3.197,0-5.74-1.807-5.74-4.012c0-2.311,2.49-4.113,5.74-4.113
	c3.197,0,5.787,1.828,5.787,4.088S650.922,688.375,647.725,688.375z M661.512,703.025c-3.73,0-6.781-2.107-6.781-4.723
	s3.051-4.697,6.781-4.697c3.707,0,6.779,2.084,6.779,4.723C668.291,700.943,665.215,703.051,661.512,703.025z M676.617,719.656
	c-4.115,0-7.492-2.387-7.492-5.281c0-2.898,3.377-5.281,7.492-5.281c4.215,0,7.566,2.383,7.566,5.307
	C684.184,717.27,680.832,719.656,676.617,719.656z M694.186,736.516c-4.596,0-8.303-2.641-8.33-5.84
	c0.025-3.275,3.732-5.891,8.33-5.891c4.648,0,8.33,2.641,8.379,5.891C702.516,733.875,698.859,736.49,694.186,736.516z
	 M717.928,752.512c-5.104,0.025-9.27-2.895-9.27-6.5c-0.025-3.604,4.162-6.5,9.27-6.5c5.125,0,9.266,2.896,9.266,6.5
	C727.193,749.617,723.053,752.512,717.928,752.512z M747.352,761.119c-5.078,0-9.316-2.945-9.316-6.525
	c0-3.559,4.242-6.529,9.316-6.529c5.104,0,9.318,2.945,9.318,6.529C756.67,758.174,752.455,761.119,747.352,761.119z
	 M778.381,762.059c-5.129-0.025-9.291-2.898-9.291-6.449c0-3.656,4.162-6.551,9.291-6.551c5.127,0,9.217,2.895,9.217,6.551
	C787.598,759.164,783.508,762.033,778.381,762.059z M809.002,762.668c-5.08,0.025-9.27-2.895-9.27-6.525
	c0-3.555,4.139-6.475,9.27-6.5c5.102,0.025,9.27,2.92,9.27,6.5C818.268,759.773,814.104,762.668,809.002,762.668z"/>
</svg>
