<svg version="1.1" id="Layer_1" xmlns="http://www.w3.org/2000/svg" xmlns:xlink="http://www.w3.org/1999/xlink" x="0px" y="0px"
	 viewBox="420 0 1080 1080" enable-background="new 420 0 1080 1080" xml:space="preserve">
<g id="Layer_1_1_">
	<g>
		<path d="M1319.399,266.6c9-10.8,14.4-24.8,14.4-40c0-34.6-28-62.6-62.6-62.6c-15.199,0-29,5.4-40,14.4
			C1156.2,121.6,1062.8,88,961.8,88c-247,0-448,201-448,448s201,448,448,448s448-201,448-448
			C1409.8,434.8,1376.2,341.6,1319.399,266.6z M961.8,966c-237.199,0-430-193-430-430c0-237.2,193-430,430-430
			c96.4,0,185.6,32,257.4,85.6c-6.801,10-10.6,22-10.6,35c0,34.601,28,62.601,62.6,62.601c13,0,25-4,35-10.601
			c53.801,71.801,85.6,161,85.6,257.4C1391.8,773,1198.8,966,961.8,966z"/>
		<ellipse cx="961.8" cy="536" rx="192.4" ry="192.2"/>
	</g>
</g>
</svg>
