<svg version="1.1" id="Layer_1" xmlns="http://www.w3.org/2000/svg" xmlns:xlink="http://www.w3.org/1999/xlink" x="0px" y="0px"
	  viewBox="420 0 1080 1080" enable-background="new 420 0 1080 1080" xml:space="preserve">
<path d="M553.148,292.094c-83.344,119.805-72.969,275.664-9.297,402.961c1.516,3.047,3.102,6.055,4.664,9.055
	c1,1.898,1.945,3.852,2.977,5.727c0.586,1.125,1.242,2.234,1.859,3.305c1.078,2.031,2.195,3.953,3.313,5.938
	c1.984,3.484,4.008,6.953,6.086,10.422c1.148,1.898,2.273,3.805,3.461,5.711c2.297,3.711,4.656,7.375,7.063,11.031
	c1,1.563,1.977,3.125,3,4.641c3.32,4.953,6.711,9.891,10.211,14.75c0.094,0.125,0.188,0.266,0.297,0.391
	c0.555,0.766,1.164,1.531,1.727,2.313c3.023,4.18,6.148,8.297,9.305,12.383c1.164,1.484,2.336,2.977,3.508,4.461
	c2.82,3.547,5.688,7.063,8.602,10.578c1.094,1.313,2.188,2.641,3.289,3.922c3.914,4.609,7.906,9.203,11.984,13.695
	c0.078,0.078,0.172,0.18,0.25,0.258c0.172,0.188,0.313,0.313,0.461,0.5c3.977,4.352,8.055,8.594,12.18,12.844
	c1.281,1.32,2.594,2.641,3.906,3.938c3.203,3.219,6.445,6.391,9.727,9.539c1.336,1.273,2.656,2.57,3.984,3.781
	c4.383,4.133,8.813,8.18,13.328,12.141c0.078,0.07,0.133,0.125,0.211,0.164c0.766,0.688,1.563,1.328,2.32,1.984
	c3.977,3.445,8.031,6.859,12.109,10.219c1.656,1.352,3.344,2.672,5.016,4.008c3.336,2.664,6.703,5.305,10.086,7.891
	c1.797,1.367,3.594,2.734,5.406,4.102c3.742,2.75,7.516,5.469,11.328,8.125c1.383,1.008,2.734,1.984,4.117,2.93
	c0.391,0.273,0.75,0.547,1.141,0.813c3.609,2.492,7.305,4.883,11,7.273c1.586,1.055,3.156,2.148,4.758,3.172
	c5.664,3.586,11.414,7.133,17.227,10.547c1.57,0.906,3.172,1.789,4.758,2.688c4.273,2.469,8.57,4.883,12.922,7.258
	c2.359,1.266,4.781,2.461,7.164,3.68c3.07,1.609,6.117,3.242,9.242,4.805c0.711,0.352,1.453,0.695,2.141,1.039
	c1.266,0.602,2.531,1.188,3.789,1.82c4.844,2.32,9.727,4.594,14.664,6.789c1.047,0.469,2.055,0.93,3.094,1.391
	c5.656,2.469,11.359,4.844,17.102,7.109c1.383,0.563,2.773,1.094,4.164,1.641c5.328,2.047,10.719,4.07,16.141,5.969
	c0.68,0.25,1.344,0.469,2.023,0.703c5.945,2.086,11.953,4.008,17.992,5.891c1.445,0.422,2.891,0.883,4.344,1.297
	c6.156,1.859,12.234,4.078,18.586,5.25c403.094,73.5,520.18-242.234,520.18-242.234
	c-98.336,128.109-272.898,161.906-438.281,124.281c-6.266-1.414-12.344-3.367-18.453-5.172c-1.563-0.461-3.086-0.93-4.609-1.398
	c-5.969-1.828-11.891-3.75-17.773-5.781c-0.805-0.289-1.617-0.586-2.445-0.883c-5.266-1.852-10.477-3.805-15.672-5.805
	c-1.461-0.586-2.93-1.148-4.391-1.727c-5.688-2.25-11.344-4.594-16.922-7.031c-1.148-0.492-2.242-1.008-3.375-1.5
	c-4.805-2.172-9.547-4.359-14.273-6.641c-1.367-0.656-2.734-1.297-4.125-1.984c-3.711-1.805-7.383-3.727-11.039-5.609
	c-2.453-1.289-4.945-2.516-7.375-3.859c-4.469-2.391-8.859-4.883-13.227-7.422c-1.484-0.828-2.984-1.633-4.469-2.492
	c-5.813-3.414-11.555-6.961-17.234-10.555c-1.57-1-3.102-2.07-4.648-3.094c-4.117-2.656-8.219-5.359-12.258-8.156
	c-1.336-0.898-2.633-1.875-3.953-2.773c-3.898-2.758-7.758-5.547-11.594-8.383c-1.734-1.281-3.445-2.594-5.133-3.883
	c-3.516-2.688-7-5.391-10.469-8.172c-1.563-1.242-3.125-2.492-4.656-3.742c-4.391-3.609-8.734-7.25-13.023-10.977
	c-0.453-0.391-0.938-0.781-1.43-1.203c-4.641-4.07-9.195-8.25-13.695-12.445c-1.305-1.25-2.578-2.469-3.859-3.719
	c-3.336-3.172-6.617-6.359-9.836-9.641c-1.297-1.297-2.586-2.563-3.859-3.852c-4.102-4.195-8.133-8.461-12.07-12.773
	c-0.195-0.219-0.406-0.406-0.602-0.633c-4.172-4.563-8.25-9.227-12.242-13.938c-1.086-1.297-2.133-2.539-3.211-3.805
	c-2.977-3.594-5.938-7.234-8.813-10.906c-1.086-1.305-2.164-2.664-3.234-4.016c-3.469-4.508-6.859-9-10.18-13.563
	c-91.82-125.242-124.805-297.992-51.422-439.867"/>
<path d="M811.891,191.164c-60.281,86.75-57.008,202.867-9.992,294.602c7.891,15.383,16.75,30.297,26.664,44.508
	c9.031,12.938,19.039,28.344,31.031,38.75c4.344,4.781,8.883,9.445,13.523,14.031c1.172,1.203,2.367,2.344,3.563,3.516
	c4.508,4.375,9.086,8.672,13.82,12.844c0.195,0.148,0.367,0.344,0.563,0.492c0.047,0.055,0.102,0.07,0.133,0.125
	c5.234,4.586,10.641,9.008,16.141,13.352c1.219,0.93,2.43,1.906,3.656,2.859c5.508,4.219,11.125,8.375,16.891,12.328
	c0.164,0.117,0.313,0.242,0.484,0.375c2.539,1.75,5.125,3.383,7.695,5.078c1.242,0.797,2.414,1.656,3.648,2.406
	c4.125,2.641,8.281,5.203,12.523,7.672c0.594,0.367,1.18,0.68,1.766,1.023c3.648,2.102,7.344,4.164,11.07,6.18
	c1.281,0.719,2.602,1.367,3.922,2.047c2.563,1.344,5.125,2.711,7.734,4.008c0.391,0.188,0.797,0.359,1.172,0.523
	c5.313,2.625,10.672,5.141,16.141,7.523c1.164,0.516,2.375,0.977,3.563,1.461c4.367,1.859,8.797,3.672,13.234,5.375
	c1.875,0.711,3.781,1.398,5.656,2.078c4.031,1.5,8.078,2.859,12.148,4.234c1.844,0.578,3.648,1.188,5.5,1.75
	c5.789,1.797,11.523,4.078,17.57,5.078c311.227,51.563,383.07-188.063,383.07-188.063
	c-64.773,93.289-190.203,137.797-324.055,103.055c-5.938-1.563-11.797-3.273-17.609-5.102c-1.789-0.539-3.539-1.125-5.305-1.711
	c-4.141-1.344-8.258-2.758-12.336-4.25c-1.867-0.68-3.734-1.367-5.563-2.078c-4.469-1.703-8.891-3.492-13.266-5.344
	c-1.203-0.516-2.406-0.977-3.578-1.516c-5.492-2.391-10.906-4.906-16.234-7.539c-2.75-1.344-5.438-2.766-8.148-4.156
	c-1.563-0.805-3.133-1.609-4.695-2.414c-3.469-1.883-6.914-3.836-10.305-5.813c-0.805-0.461-1.648-0.898-2.469-1.391
	c-4.211-2.461-8.359-5.008-12.469-7.617c-1.273-0.805-2.492-1.688-3.758-2.516c-2.719-1.758-5.422-3.539-8.094-5.344
	c-5.727-3.953-11.305-8.109-16.813-12.305c-1.266-1-2.539-1.977-3.789-2.977c-58.586-46.266-105.023-109.477-127.102-181.156
	c-23.141-74.344-18.156-157.789,21.938-225.508"/>
<path d="M1029.5,115.758c-35.539,52.297-39.023,117.242-14.375,175c26.008,61.305,79.289,109.398,141.477,132.195
	c2.563,0.961,5.125,1.805,7.719,2.688c1.141,0.344,2.266,0.734,3.414,1.07c3.664,1.156,7.289,2.492,11.086,3.203
	c171.852,33.203,218.453-88.188,230.867-106.047c-40.836,58.781-109.445,72.898-193.648,52.469
	c-6.641-1.625-13.953-4.023-20.367-6.297c-8.227-2.93-16.32-6.266-24.18-10.047c-14.961-7.188-29.203-15.898-42.422-25.883
	c-75.328-57.164-122.125-166.211-72.969-255.016"/>
</svg>
