<svg version="1.1" id="Layer_1" xmlns="http://www.w3.org/2000/svg" xmlns:xlink="http://www.w3.org/1999/xlink" x="0px" y="0px"
	 viewBox="420 0 1080 1080" enable-background="new 420 0 1080 1080" xml:space="preserve">
<g>
	<path d="M1080.817,828.969c7.324,10.58,11.799,9.767,17.493,7.324c5.695-2.442,298.668-101.319,307.617-104.571
		c8.951-3.256,6.105-6.104,3.26-10.584c-2.85-4.475-100.507-137.124-105.392-144.854c-4.882-7.73-7.324-6.104-15.056-3.662
		l-310.564,80.812C978.176,653.433,1073.493,818.385,1080.817,828.969z M1430.75,693.892V538.626
		c-34.94,9.309-79.135,21.079-96.581,25.719C1360.488,599.56,1401.637,654.671,1430.75,693.892z M1333.869,373.113
		c-4.787,1.087-110.768,20.24-117.298,21.108c-6.525,0.871-4.351,4.57-1.739,8.269l93.263,127.965c0,0,114.034-28.29,121-29.813
		c0.563-0.125,1.117-0.257,1.655-0.392v-16.945c-20.728-26.283-77.197-97.844-82.079-104.531
		C1342.797,370.722,1338.659,372.029,1333.869,373.113L1333.869,373.113z"/>
	<path d="M667.039,172.111c22.95-1.043,25.045,4.178,35.127,19.131l253.308,423.494l318.508-76.3
		c-17.647-25.016-97.76-138.597-105.506-149.437c-8.701-12.188,0.221-17.845,14.367-20.236
		c14.143-2.396,136.011-22.852,146.455-24.375c10.447-1.523,18.721-5.223,35.69,15.234c8.687,10.466,38.13,47.131,65.761,81.5
		V243.031c0-48.42-17.193-89.824-51.573-124.208c-34.384-34.38-75.788-51.573-124.208-51.573H669.031
		c-48.42,0-89.824,17.193-124.208,51.573c-19.72,19.728-33.757,41.763-42.162,66.105c57.415-4.717,148.319-12.085,164.381-12.817
		H667.039z"/>
	<path d="M1109.543,885.966c-26.858,8.138-38.902,12.177-56.396-12.239c-13.104-18.284-83.961-145.909-118.704-208.824
		c-65.753,17.22-186.086,48.626-220.788,56.965c-33.867,8.137-48.333-12.17-53.896-24.684
		c-3.9-8.781-103.194-222.861-166.509-360.219v492.004c0,48.424,17.193,89.82,51.573,124.208
		c34.384,34.38,75.788,51.573,124.208,51.573h585.938c48.42,0,89.824-17.193,124.208-51.573
		c34.38-34.388,51.573-75.784,51.573-124.208v-57.792C1358.826,797.485,1127.637,880.483,1109.543,885.966z"/>
	<path d="M714.485,672.553c9.521-2.179,187.914-44.872,191.723-45.688s6.255-2.992,2.175-10.06
		c-4.079-7.068-237.795-410.486-237.795-410.486c-2.157-3.702-1.542-4.937-7.405-4.629c-5.226,0.278-137.468,12.078-168.083,14.634
		c-0.904,6.474-1.468,12.99-1.688,19.523c31.08,63.629,209.469,431.532,210.469,434.528
		C704.968,673.641,704.968,674.729,714.485,672.553L714.485,672.553z"/>
</g>
</svg>
