<svg version="1.1" id="Layer_1" xmlns="http://www.w3.org/2000/svg" xmlns:xlink="http://www.w3.org/1999/xlink" x="0px" y="0px"
	 viewBox="420 0 1080 1080" enable-background="new 420 0 1080 1080" xml:space="preserve">
<path d="M1325.209,597.947c-34.594,0-65.105,8.357-91.439,20.795c-9.717-17.977-19.434-34.594-20.795-47.128
	c-1.359-13.798-4.08-22.155-1.359-40.133c2.817-16.616,12.438-41.589,12.438-42.949c0-1.361-2.818-11.079-22.155-11.079
	c-20.795,0-37.411,4.179-40.132,9.717c-1.361,5.54-5.539,17.978-8.357,30.416c-4.178,17.977-40.132,84.541-60.927,119.133
	c-6.899-13.798-12.438-24.876-13.798-34.593c-1.458-13.896-4.18-22.156-1.458-40.133c2.817-16.616,12.438-41.59,12.438-42.951
	s-2.818-11.078-22.156-11.078c-20.795,0-37.411,4.179-40.132,9.717c-1.36,5.442-4.179,17.978-8.259,30.416
	c-4.18,12.438-54.028,121.95-66.466,149.646c-6.997,13.799-12.536,26.236-16.714,34.594l0,0c0,0,0,0,0,1.359
	c-2.721,6.996-5.539,11.078-5.539,11.078l0,0c-2.818,5.538-5.539,9.717-6.899,9.717s-2.818-13.896,0-31.872
	c6.899-37.412,24.973-96.978,24.973-99.698c0-1.361,2.818-11.078-11.078-16.617c-13.896-5.539-19.435,4.179-20.795,4.179
	s-2.818,2.721-2.818,2.721s16.617-66.466-30.415-66.466c-29.054,0-69.284,31.873-88.621,60.926
	c-12.535,6.9-38.869,20.795-67.923,37.412c-11.078,5.539-22.155,12.438-33.33,17.977c-1.36-1.36-1.36-1.36-2.721-2.721
	c-56.846-59.566-160.723-102.516-156.544-182.877c1.36-29.055,12.438-106.695,199.495-200.855
	c153.727-76.183,277.038-55.388,299.193-8.357c30.513,66.466-66.466,191.138-225.829,209.212
	c-60.927,6.899-92.799-16.617-101.059-24.974c-8.357-9.717-9.717-9.717-12.438-8.357c-5.539,2.818-1.36,11.078,0,15.256
	c4.178,12.438,24.973,34.593,58.206,45.671c29.055,9.717,101.157,15.256,187.057-17.977
	c96.978-37.411,173.162-141.289,151.005-228.549c-22.252-88.621-170.537-117.675-309.007-67.826
	c-83.18,29.055-173.161,76.183-236.906,135.75c-76.183,72.004-88.621,134.389-84.54,160.722
	c17.977,92.8,145.466,152.366,196.676,198.134c-2.721,1.361-5.441,2.723-6.899,4.082c-26.333,12.438-123.214,63.746-146.827,117.772
	c-27.694,60.927,4.178,105.237,24.973,110.776c65.105,17.977,133.029-15.256,168.982-69.283
	c35.955-54.028,31.873-124.672,15.256-156.545v-1.359c6.899-4.18,13.896-8.357,19.435-12.438
	c12.438-8.261,26.236-15.257,37.314-20.795c-5.539,16.616-11.078,37.411-12.438,66.466c-2.818,34.689,11.078,79,30.512,96.979
	c8.357,8.355,17.977,8.355,24.974,8.355c22.155,0,31.873-17.977,42.95-38.771c13.896-26.334,24.973-56.748,24.973-56.748
	s-15.353,81.624,24.779,81.624c15.256,0,29.055-19.435,36.051-29.055l0,0c0,0,0,0,1.36-1.36c1.36-2.818,2.818-4.178,2.818-4.178l0,0
	c5.539-9.718,19.435-33.233,38.771-72.006c24.974-49.849,49.85-112.233,49.85-112.233s2.817,15.257,9.718,40.133
	c4.178,15.255,13.895,31.872,20.795,47.128c-5.539,8.357-9.718,12.438-9.718,12.438l0,0c-4.179,6.9-9.718,12.438-15.257,19.436
	c-20.795,23.516-44.311,51.21-47.031,59.566c-4.178,9.717-2.817,16.616,4.18,22.156c5.538,4.178,15.256,4.178,24.973,4.178
	c17.977-1.361,30.512-5.539,37.411-8.357c9.718-2.817,20.795-8.357,31.872-16.615c19.436-13.896,31.873-34.594,30.513-62.385
	c0-15.258-5.539-30.513-11.077-44.311c1.263-2.721,3.983-5.54,5.344-8.261c30.512-45.671,55.389-95.618,55.389-95.618
	s2.818,15.258,9.717,40.133c4.178,12.535,11.078,26.432,18.074,40.23c-29.152,23.611-47.129,51.306-54.027,69.283
	c-11.078,33.232-2.818,48.488,15.158,52.667c8.357,1.36,17.977-1.36,26.334-5.539c9.717-2.817,22.154-9.716,34.594-17.977
	c19.434-13.896,38.771-34.593,37.41-62.385c0-12.438-4.178-24.973-8.356-37.411c24.974-9.717,56.749-16.617,98.339-11.077
	c87.26,9.718,105.236,65.105,101.156,87.261c-2.818,23.516-22.156,36.051-27.694,38.771c-5.441,4.178-8.26,5.539-6.802,8.356
	c1.36,4.179,4.178,4.179,8.356,2.817c6.899-1.359,45.671-17.977,47.128-60.926C1467.955,657.515,1416.648,597.947,1325.209,597.947z
	 M650.639,826.496c-29.151,31.873-69.284,42.951-87.358,33.33c-19.434-11.077-11.078-58.205,24.973-91.438
	c22.155-20.795,49.85-38.772,67.924-51.21c4.178-2.818,11.078-6.898,17.977-11.078c1.36-1.359,1.36-1.359,1.36-1.359l0,0
	c1.36-1.458,2.818-1.458,4.179-2.915C693.492,750.313,681.054,793.264,650.639,826.496z M861.114,682.487
	c-9.717,24.974-31.873,87.261-44.311,84.54c-11.078-2.818-17.977-51.307-2.721-98.436c8.357-23.516,24.973-52.667,34.593-63.744
	c15.256-17.979,33.233-23.516,37.412-16.617C892.987,597.947,868.111,667.232,861.114,682.487z M1035.732,765.57
	c-4.178,2.817-6.996,4.178-9.717,2.817c-1.36-1.457,1.36-4.179,1.36-4.179s22.155-23.516,30.513-34.594
	c5.539-5.635,11.077-13.895,16.615-22.252c0,1.36,0,1.36,0,2.818C1075.865,739.236,1048.171,758.67,1035.732,765.57z
	 M1171.482,735.154c-2.818-2.816-2.818-9.717,8.26-31.872c4.178-8.356,13.896-23.612,30.512-38.869
	c1.361,5.54,2.818,11.077,2.818,16.617C1211.615,717.08,1186.738,729.615,1171.482,735.154z"/>
</svg>
