<svg version="1.1" id="Layer_2" xmlns="http://www.w3.org/2000/svg" xmlns:xlink="http://www.w3.org/1999/xlink" x="0px" y="0px"
	 viewBox="420 0 1080 1080" enable-background="new 420 0 1080 1080" xml:space="preserve">
<polygon id="bottom" points="959.652,879.462 816.252,809.513 816.412,809.438 816.371,809.419 
	664,883.739 959.766,1027.993 1256,884.06 1103.086,808.306 "/>
<polygon id="right_1_" class="secondary-colour" points="664.363,884.239 664.363,735.583 810.996,664.067 961.82,738.458 "/>
<polygon id="right-2" class="secondary-colour" points="1122.383,272.438 1122.383,507.489 1122.383,507.489 1122.383,507.489 
	958.445,587.403 1109.203,662.481 1255.984,590.985 1255.984,188.951 "/>
<polygon id="left_1_" class="tertiary-colour" points="1256,884.106 1256,884.106 1256,735.442 797.992,507.351 797.992,272.298 
	664.385,188.81 664.385,590.849 "/>
<polygon id="top" points="797.584,272.074 797.584,272.027 959.758,192.931 1121.938,272.027 1255.375,188.642 959.647,44.397 
	664,188.599 664,188.726 797.473,272.13 "/>
</svg>
