<svg version="1.1" id="Layer_1" xmlns="http://www.w3.org/2000/svg" xmlns:xlink="http://www.w3.org/1999/xlink" x="0px" y="0px"
	 viewBox="420 0 1080 1080" enable-background="new 420 0 1080 1080" xml:space="preserve">
<g>
	<path d="M568.098,536.25c0,156.02,90.668,290.844,222.145,354.738L602.223,375.84C580.352,424.863,568.098,479.113,568.098,536.25z
		"/>
	<path d="M1228.34,516.363c0-48.711-17.496-82.449-32.504-108.707c-19.98-32.465-38.707-59.961-38.707-92.43
		c0-36.234,27.48-69.961,66.188-69.961c1.742,0,3.398,0.219,5.105,0.316c-70.129-64.242-163.559-103.473-266.172-103.473
		c-137.695,0-258.844,70.652-329.32,177.664c9.246,0.277,17.961,0.469,25.363,0.469c41.227,0,105.047-5,105.047-5
		c21.25-1.254,23.754,29.953,2.527,32.465c0,0-21.352,2.516-45.113,3.758l143.535,426.938l86.258-258.691l-61.41-168.258
		c-21.223-1.246-41.332-3.758-41.332-3.758c-21.242-1.246-18.75-33.723,2.488-32.469c0,0,65.094,5.004,103.82,5.004
		c41.223,0,105.051-5.004,105.051-5.004c21.258-1.254,23.762,29.957,2.523,32.469c0,0-21.395,2.512-45.113,3.758l142.441,423.703
		l39.316-131.371C1215.371,589.262,1228.34,550.105,1228.34,516.363z"/>
	<path d="M969.164,570.73L850.91,914.371c35.309,10.383,72.652,16.059,111.34,16.059c45.902,0,89.922-7.938,130.895-22.344
		c-1.055-1.684-2.016-3.48-2.809-5.43L969.164,570.73z"/>
	<path d="M1308.109,347.145c1.691,12.555,2.656,26.039,2.656,40.531c0,40-7.469,84.961-29.969,141.184l-120.395,348.098
		c117.172-68.336,195.996-195.285,195.996-340.699C1356.398,467.73,1338.891,403.293,1308.109,347.145z"/>
	<path d="M962.25,76.801c-253.34,0-459.461,206.109-459.461,459.449c0,253.371,206.121,459.477,459.461,459.477
		s459.492-206.105,459.492-459.477C1421.73,282.91,1215.59,76.801,962.25,76.801z M962.25,974.66
		c-241.719,0-438.395-196.668-438.395-438.41c0-241.723,196.668-438.379,438.395-438.379c241.723,0,438.379,196.656,438.379,438.379
		C1400.629,777.992,1203.973,974.66,962.25,974.66z"/>
</g>
</svg>
